# xmcd
#
# Track frame offsets:
#	150
#	19438
#	33960
#	54258
#	79688
#	96308
#	115153
#	132608
#	153683
#	169580
#
# Disc length: 2504 seconds
#
# Revision: 3
# Processed by: cddbd v1.5.2PL0 Copyright (c) Steve Scherf et al.
# Submitted via: EasyCDDAExtractor 15.3.0.1
#
DISCID=7f09c60a
DTITLE=Yolandita Monge - Antologia Musical Vol. 2 - CD 1
DYEAR=1994
DGENRE=Latin
TTITLE0=Quitame Ese Hombre Del Corazon
TTITLE1=Amandote
TTITLE2=Debil
TTITLE3=Laberinto De Amor
TTITLE4=Eres Magico
TTITLE5=Ahora, Ahora
TTITLE6=Contigo
TTITLE7=Este Amor Que Hay Que Callar
TTITLE8=Por Ti (Call Me)
TTITLE9=Borinqueña
EXTD=
EXTT0=
EXTT1=
EXTT2=
EXTT3=
EXTT4=
EXTT5=
EXTT6=
EXTT7=
EXTT8=
EXTT9=
PLAYORDER=
